
<svg xmlns="http://www.w3.org/2000/svg" data-name="Layer 1" width="864.67" height="685.078">
  <path d="M101.306 515.34a3.613 3.613 0 0 1-2.619-6.263l.248-.985-.098-.236a9.703 9.703 0 0 0-17.899.067c-2.927 7.05-6.654 14.113-7.572 21.567a28.706 28.706 0 0 0 .504 9.873 115.086 115.086 0 0 1-10.469-47.8 111.08 111.08 0 0 1 .689-12.391q.57-5.06 1.584-10.048a116.42 116.42 0 0 1 23.087-49.341 30.983 30.983 0 0 0 12.885-13.369 23.634 23.634 0 0 0 2.15-6.458 29.36 29.36 0 0 1-1.893.175l-.596.03-.074.004a3.58 3.58 0 0 1-2.94-5.832l.813-1c.412-.514.833-1.018 1.245-1.532a1.785 1.785 0 0 0 .133-.155c.473-.586.946-1.162 1.42-1.748a10.352 10.352 0 0 0-3.394-3.28c-4.741-2.777-11.282-.854-14.706 3.435-3.435 4.288-4.083 10.304-2.89 15.662a41.485 41.485 0 0 0 5.739 12.793c-.258.329-.525.648-.782.977a117.172 117.172 0 0 0-12.23 19.375 48.71 48.71 0 0 0-2.908-22.625c-2.783-6.715-8-12.37-12.595-18.175-5.518-6.973-16.835-3.93-17.807 4.91l-.027.256q1.023.578 2.004 1.226a4.901 4.901 0 0 1-1.976 8.919l-.1.015a48.767 48.767 0 0 0 1.285 7.292 50.21 50.21 0 0 0 25 31.468c.401.206.792.411 1.193.607a119.598 119.598 0 0 0-6.438 30.296 113.435 113.435 0 0 0 .082 18.315l-.03-.216a29.974 29.974 0 0 0-10.233-17.307c-7.874-6.469-19-8.851-27.494-14.05a5.625 5.625 0 0 0-8.616 5.472l.035.227a32.928 32.928 0 0 1 3.692 1.78q1.023.577 2.004 1.225a4.901 4.901 0 0 1-1.976 8.92l-.1.014-.206.031a48.808 48.808 0 0 0 8.978 14.058 50.254 50.254 0 0 0 36.445 15.992h.01a119.562 119.562 0 0 0 8.032 23.447h28.692c.103-.32.196-.648.288-.967a32.599 32.599 0 0 1-7.94-.473c2.13-2.612 4.258-5.245 6.387-7.857a1.78 1.78 0 0 0 .134-.154c1.08-1.337 2.17-2.664 3.25-4v-.002a47.75 47.75 0 0 0-1.399-12.164Z" fill="#f2f2f2"/>
  <path d="M439.67 541.344a1.186 1.186 0 0 1-1.19 1.19H1.19a1.19 1.19 0 0 1 0-2.38h437.29a1.187 1.187 0 0 1 1.19 1.19Z" fill="#ccc"/>
  <path d="M228.982 388.484a11.583 11.583 0 0 0-14.259 10.59l-24.999 8.7 1.582 16.48 35.13-12.781a11.646 11.646 0 0 0 2.546-22.99Z" fill="#ffb6b6"/>
  <path d="M188.24 436.387c-9.94 6.928-27.452 10.472-51.285 10.31a9.53 9.53 0 0 1-7.027-3.064c-6.377-6.641-6.128-21.8-6.088-23.264l-6.99-26.343c-.15-.402-4.019-11.211-.083-18.76a12.369 12.369 0 0 1 8.226-6.268c14.782-3.922 28.678 35.647 30.444 40.876l20.745-3.533 14.327-.59 14.575-8.045 8.207 19.64-20.309 14.841a25.664 25.664 0 0 1-4.742 4.2Z" fill="#2f2e41"/>
  <path fill="#ffb6b6" d="m228.268 654.202 15.281.714 10.026-58.601-22.553-1.054-2.754 58.941z"/>
  <path d="m224.831 646.486 24.223-.312-.484 10.35 22.224 16.935a6.472 6.472 0 0 1-4.224 11.612l-28.759-1.345-4.478-10.469-2.414 10.147-10.843-.507Z" fill="#2f2e41"/>
  <path fill="#ffb6b6" d="m387.812 528.378 5.567-14.249-52.311-28.253-26.426 16.61 73.17 25.892z"/>
  <path d="m379.402 529.165 7.457-23.049 9.65 3.77 23.157-15.635a6.472 6.472 0 0 1 9.65 7.719l-10.478 26.816-11.352.892 8.84 5.535-3.95 10.11ZM87.296 485.97s6.346 40.516 36.346 43.516 57.654-10.516 57.654-10.516l84-25.87s89.346 25.386 104.346 29.386c0 0 10.347-23.484 10-25-3.19-13.958-7.346-4.516-7.346-4.516l-95-42s-15-4-41 7-95.654 37.516-95.654 37.516Z" fill="#2f2e41"/>
  <path d="M87.642 483.486s-5.003 48.537 24.22 55.952c27.78 7.048 66.099-.182 66.099-.182l45.681-4.77s2 58.696 2 87.696a220.258 220.258 0 0 0 28 2c2 0 2.133-1.048 2.133-1.048l3.873-101.444a31.658 31.658 0 0 0-32.755-33.585q-3.234.124-6.786.458c-28.102 2.695-62.99-3.034-62.99-3.034Z" fill="#2f2e41"/>
  <path d="M168.7 413.075s11.864 71.743 3.847 77.47-19.013 5.75-19.013 5.75l-2.556-39.612ZM148.913 324.963l15.863 15.074a46.752 46.752 0 0 1 9.2 55.603l-7.583 14.46Z" fill="#2f2e41"/>
  <path d="m145.366 327.498 21.494 24.482a34.355 34.355 0 0 1 8.362 19.197 34.355 34.355 0 0 1-.391 9.684l-8.1 44.034-6.089 63.591s-47.003 14.242-51.814-7.75 36.538-153.238 36.538-153.238Z" fill="#e4a4e6"/>
  <path d="M125.19 494.463c-30.897-5.15-38.466-6.172-38.938-6.352l-.472-.18 3.097-18.584 13.078-32.135c.85-10.512 6.357-24.754 3.206-36.194-9.16-33.257 5.723-80.253 12.53-83.853l18.868-12.37 6.624 6.072 11.484 16.077c9.45 42.091 15.975 81.323 15.658 83.721l-5.832 41.207-6.872 15.806c-20.848 10.06-6.829 31.051-32.43 26.785Z" fill="#2f2e41"/>
  <path d="m181.131 464.232 48.514-12.98 4.272-1.012 3.046-.724 3.55-.839.028-.006a2.013 2.013 0 0 1 1.507.25l18.013 21.598a1.59 1.59 0 0 1 .424.38.714.714 0 0 1 .128.135 2.056 2.056 0 0 1-1.159 3.21L187.081 490.9a2.039 2.039 0 0 1-2.049-.724l-.734-.952-4.005-19.285-.285-2.505a1.996 1.996 0 0 1-.376-.787 2.028 2.028 0 0 1 1.5-2.415Z" fill="#e6e6e6"/>
  <path d="m351.963 596.683.738.955a2.038 2.038 0 0 0 2.044.724l72.376-16.656a2.052 2.052 0 0 0 1.156-3.208.611.611 0 0 0-.126-.135Z" transform="translate(-167.665 -107.46)" opacity=".17" style="isolation:isolate"/>
  <path d="m240.151 448.536-1.31-92.265a2.106 2.106 0 0 1 .468-1.542l9.274-19.3.963-1.171a2.132 2.132 0 0 1 1.425-.754l2.019-.188a2.107 2.107 0 0 1 2.302 1.89l1.818 97.624.002.007.9 9.4 1.068 11.162.003.014 1.666 17.366a2.062 2.062 0 0 1-.557 1.637 2.091 2.091 0 0 1-1.585.679l-1.313-.027a2.14 2.14 0 0 1-1.364-.537l-.735-.66-.34-.31-14.007-21.654a2.094 2.094 0 0 1-.697-1.37Z" fill="#e6e6e6"/>
  <path d="m416.251 442.889 6.267 136.136.343.306.732.658a2.132 2.132 0 0 0 1.365.538l1.315.027a2.115 2.115 0 0 0 2.141-2.314l-5.46-135.57a2.108 2.108 0 0 0-2.298-1.897l-2.023.194a2.078 2.078 0 0 0-1.418.754Z" transform="translate(-167.665 -107.46)" opacity=".17" style="isolation:isolate"/>
  <path fill="#e4a4e6" d="m249.113 340.929-8.481 20.935 1.049 62.627 9.182 13.279-1.75-96.841z"/>
  <path d="M186.722 463.68a1.82 1.82 0 0 0-1.252 2.249l3.737 15.571 3.5-.997-3.736-15.571a1.82 1.82 0 0 0-2.249-1.252ZM193.724 461.686a1.82 1.82 0 0 0-1.252 2.25l.798 2.8 3.5-.997-.797-2.8a1.82 1.82 0 0 0-2.249-1.253ZM200.726 459.693a1.82 1.82 0 0 0-1.252 2.248l.798 2.801 3.5-.997-.797-2.8a1.82 1.82 0 0 0-2.249-1.252ZM207.728 457.699a1.82 1.82 0 0 0-1.252 2.249l.797 2.8 3.501-.996-.797-2.801a1.82 1.82 0 0 0-2.25-1.252ZM214.73 455.705a1.82 1.82 0 0 0-1.252 2.249l.797 2.8 3.501-.996-.797-2.8a1.82 1.82 0 0 0-2.25-1.253ZM221.731 453.711a1.82 1.82 0 0 0-1.252 2.25l.798 2.8 3.5-.997-.797-2.8a1.82 1.82 0 0 0-2.249-1.253ZM228.733 451.718a1.82 1.82 0 0 0-1.252 2.249l.798 2.8 3.5-.997-.797-2.8a1.82 1.82 0 0 0-2.249-1.252ZM235.735 449.724a1.82 1.82 0 0 0-1.252 2.249l.798 2.8 3.5-.996-.797-2.801a1.82 1.82 0 0 0-2.249-1.252ZM195.194 468.071a1.82 1.82 0 0 0-1.252 2.25l.797 2.8 3.501-.997-.797-2.8a1.82 1.82 0 0 0-2.25-1.253ZM202.195 466.078a1.82 1.82 0 0 0-1.252 2.249l.798 2.8 3.5-.996-.797-2.801a1.82 1.82 0 0 0-2.249-1.252ZM209.197 464.084a1.82 1.82 0 0 0-1.252 2.249l.798 2.8 3.5-.996-.797-2.8a1.82 1.82 0 0 0-2.249-1.253ZM216.2 462.09a1.82 1.82 0 0 0-1.253 2.25l.798 2.8 3.5-.997-.797-2.8a1.82 1.82 0 0 0-2.249-1.253ZM223.2 460.097a1.82 1.82 0 0 0-1.251 2.249l.797 2.8 3.501-.997-.797-2.8a1.82 1.82 0 0 0-2.25-1.252ZM230.203 458.103a1.82 1.82 0 0 0-1.252 2.249l.797 2.8 3.501-.996-.797-2.801a1.82 1.82 0 0 0-2.25-1.252ZM237.205 456.11a1.82 1.82 0 0 0-1.252 2.248l.797 2.8 3.501-.996-.798-2.8a1.82 1.82 0 0 0-2.248-1.253ZM196.663 474.457a1.82 1.82 0 0 0-1.252 2.249l.797 2.8 3.501-.997-.797-2.8a1.82 1.82 0 0 0-2.249-1.252ZM203.665 472.463a1.82 1.82 0 0 0-1.252 2.249l.797 2.8 3.501-.996-.797-2.801a1.82 1.82 0 0 0-2.25-1.252ZM210.667 470.47a1.82 1.82 0 0 0-1.252 2.248l.797 2.8 3.501-.996-.797-2.8a1.82 1.82 0 0 0-2.25-1.253ZM217.669 468.476a1.82 1.82 0 0 0-1.252 2.248l.797 2.801 3.5-.997-.797-2.8a1.82 1.82 0 0 0-2.248-1.252ZM224.67 466.482a1.82 1.82 0 0 0-1.252 2.249l.798 2.8 3.5-.996-.797-2.801a1.82 1.82 0 0 0-2.249-1.252ZM231.672 464.488a1.82 1.82 0 0 0-1.252 2.249l.798 2.8 3.5-.996-.797-2.8a1.82 1.82 0 0 0-2.249-1.253ZM238.674 462.494a1.82 1.82 0 0 0-1.252 2.25l.797 2.8 3.501-.997-.797-2.8a1.82 1.82 0 0 0-2.249-1.253Z" fill="#2f2e41"/>
  <path d="M218.103 450.41a11.583 11.583 0 0 0-17.656-1.937l-24.242-10.628-10.051 13.157 34.445 14.528a11.646 11.646 0 0 0 17.504-15.12Z" fill="#ffb6b6"/>
  <path d="M155.653 457.81c-11.998-1.684-27.245-10.998-44.605-27.33a9.53 9.53 0 0 1-3.066-7.025c-.157-9.206 10.337-20.148 11.362-21.194l12.796-24.064c.164-.397 4.68-10.952 12.7-13.807a12.369 12.369 0 0 1 10.294 1.001c13.503 7.18-3.227 45.637-5.49 50.67l17.61 11.523 10.901 9.313 16.157 4.018-7.345 19.978-24.981-2.936a25.664 25.664 0 0 1-6.333-.147Z" fill="#2f2e41"/>
  <ellipse cx="317.082" cy="379.669" rx="30.782" ry="30.111" transform="rotate(-83.168 172.697 420.415)" fill="#ffb6b6"/>
  <path d="M71.004 249.368c5.792-5.317 9.15-12.89 14.019-19.133 4.869-6.243 12.66-11.42 19.941-8.958 5.019 1.696 8.454 6.716 9.861 12.022 1.407 5.307 1.115 10.938.813 16.452 1.223-11.26 9.937-21.274 20.573-23.64 10.635-2.365 22.369 3.1 27.7 12.903a15.695 15.695 0 0 1 20.749 2.046c5.122 5.814 5.222 15.723.22 21.757s-14.43 7.375-20.699 2.945l-2.631 1.897c.775 4.825-2.473 10.027-7.032 11.262-3.697 1.002-8.647.169-10.41 3.711-1.233 2.476.16 5.442 1.756 7.65 1.595 2.206 3.526 4.519 3.417 7.295-.165 4.188-4.8 6.581-8.803 6.99-9.65.984-19.556-4.617-23.979-13.56q-.128-.258-.283-.52a36.55 36.55 0 0 1-3.975-28.624c.535-1.88.398-3.343-.869-3.955-5.477-2.647-21.975-.446-27.264 2.695-5.29 3.142-9.758 7.603-14.898 11.006-5.14 3.403-11.452 5.747-17.247 3.958-4.64-1.432-8.264-5.36-10.481-9.84-2.217-4.48-3.2-9.51-4.022-14.49 9.765 7.317 24.427 6.5 33.544-1.869Z" fill="#2f2e41"/>
  <path d="M862.903 34.484H408.61a1.807 1.807 0 0 1 0-3.613h454.293a1.807 1.807 0 0 1 0 3.613Z" fill="#cacaca"/>
  <ellipse cx="439.534" cy="10.823" rx="10.588" ry="10.823" fill="#3f3d56"/>
  <ellipse cx="476.109" cy="10.823" rx="10.588" ry="10.823" fill="#3f3d56"/>
  <ellipse cx="512.684" cy="10.823" rx="10.588" ry="10.823" fill="#3f3d56"/>
  <path d="M840.882 2.683H814.9a1.968 1.968 0 0 0 0 3.934h25.98a1.968 1.968 0 0 0 0-3.934ZM840.882 10.067H814.9a1.968 1.968 0 0 0 0 3.935h25.98a1.968 1.968 0 0 0 0-3.935ZM840.882 17.442H814.9a1.968 1.968 0 0 0 0 3.934h25.98a1.968 1.968 0 0 0 0-3.934Z" fill="#3f3d56"/>
  <path d="m66.45 449.706.015-.02-.015.04Z" fill="#2f2e41"/>
  <circle cx="690.523" cy="91.795" r="13.089" fill="#e6e7e8"/>
  <path d="M800.846 120.78H681.33a3.898 3.898 0 1 1 0-7.796h119.515a3.898 3.898 0 1 1 0 7.796ZM711.015 136.182h-29.684a3.898 3.898 0 1 1 0-7.796h29.684a3.898 3.898 0 0 1 0 7.796Z" fill="#e6e7e8"/>
  <circle cx="690.523" cy="296.1" r="13.089" fill="#e6e7e8"/>
  <path d="M800.846 325.084H681.33a3.898 3.898 0 1 1 0-7.795h119.515a3.898 3.898 0 1 1 0 7.795ZM711.015 340.486h-29.684a3.898 3.898 0 1 1 0-7.796h29.684a3.898 3.898 0 0 1 0 7.796Z" fill="#e6e7e8"/>
  <circle cx="479.859" cy="265.096" r="13.089" fill="#e6e7e8"/>
  <path d="M590.181 294.08H470.667a3.898 3.898 0 1 1 0-7.795h119.514a3.898 3.898 0 1 1 0 7.796ZM500.35 309.483h-29.683a3.898 3.898 0 1 1 0-7.796h29.684a3.898 3.898 0 1 1 0 7.796Z" fill="#e6e7e8"/>
  <circle cx="690.523" cy="186.247" r="13.089" fill="#e6e7e8"/>
  <path d="M800.846 215.231H681.33a3.898 3.898 0 1 1 0-7.796h119.515a3.898 3.898 0 1 1 0 7.796ZM753.148 230.633H681.33a3.898 3.898 0 1 1 0-7.796h71.817a3.898 3.898 0 0 1 0 7.796ZM733.138 246.035H681.33a3.898 3.898 0 1 1 0-7.796h51.807a3.898 3.898 0 0 1 0 7.796Z" fill="#e6e7e8"/>
  <path d="M571.182 101.188v137.428a3.625 3.625 0 0 1-3.615 3.62h-72.411a88.849 88.849 0 0 1-19.387-26.085 45.2 45.2 0 0 1-.904-1.916 88.005 88.005 0 0 1-7.824-30.125 49.778 49.778 0 0 1-.129-1.926 84.4 84.4 0 0 1-.143-5.019 88.44 88.44 0 0 1 6.239-32.743c.247-.647.508-1.289.78-1.926a88.976 88.976 0 0 1 24.445-33.133q.948-.808 1.916-1.571l.149-.119a46.837 46.837 0 0 1 29.225-10.115h38.043a3.627 3.627 0 0 1 3.616 3.63Z" fill="#e4a4e6"/>
  <path d="M571.375 144.422v-1.926H539.08V97.558h-1.921v44.938h-37.01v-34.704q-.971.763-1.917 1.57v33.134h-24.445a54.08 54.08 0 0 0-.78 1.926h25.225v37.762h-31.32c.03.647.074 1.284.128 1.926h31.192v30.125h-23.368a45.2 45.2 0 0 0 .904 1.916h22.464v25.324h1.916v-25.324h37.01v25.324h1.922v-25.324h32.294v-1.916H539.08a30.12 30.12 0 0 1 30.125-30.125h2.169v-1.926H539.08v-37.762Zm-34.215 69.813h-37.01V184.11h37.01Zm0-32.051h-37.01v-.756a37.008 37.008 0 0 1 37.01-37.006Z" opacity=".2"/>
  <path d="M567.733 214.72a3.78 3.78 0 0 1-2.74-6.551l.26-1.03-.104-.247c-3.48-8.298-25.685 14.833-26.645 22.632a30.029 30.029 0 0 0 .528 10.327 120.392 120.392 0 0 1-10.952-50.002 116.202 116.202 0 0 1 .72-12.964q.598-5.293 1.657-10.51a121.787 121.787 0 0 1 24.152-51.617c6.874.384 12.898-.663 13.48-13.985.103-2.37 1.86-4.422 2.248-6.756-.656.086-1.323.14-1.98.183l-.623.032-.077.004a3.745 3.745 0 0 1-3.076-6.102l.85-1.045c.43-.538.872-1.065 1.302-1.603a1.868 1.868 0 0 0 .14-.161c.495-.614.99-1.216 1.485-1.83a10.83 10.83 0 0 0-3.55-3.431c-4.96-2.905-11.802-.893-15.384 3.593-3.593 4.486-4.271 10.78-3.023 16.384a43.398 43.398 0 0 0 6.003 13.383c-.27.345-.55.678-.818 1.022a122.574 122.574 0 0 0-12.794 20.268c1.017-7.938-11.411-36.608-16.217-42.68-5.773-7.294-17.611-4.11-18.629 5.136l-.028.268q1.07.604 2.096 1.282a5.127 5.127 0 0 1-2.067 9.33l-.105.017c-9.555 13.643 21.078 49.155 28.746 41.181a125.112 125.112 0 0 0-6.735 31.693 118.663 118.663 0 0 0 .086 19.16l-.032-.226c-1.704-13.882-30.931-34.523-39.466-32.803-4.917.99-9.76.765-9.013 5.724q.017.12.036.238a34.445 34.445 0 0 1 3.862 1.861q1.07.604 2.096 1.282a5.127 5.127 0 0 1-2.067 9.33l-.104.017c-.076.01-.14.021-.215.032-4.35 14.967 27.907 39.12 47.517 31.435h.011a125.076 125.076 0 0 0 8.402 24.528h30.015c.107-.334.204-.678.3-1.011a34.102 34.102 0 0 1-8.304-.495c2.227-2.733 4.453-5.487 6.68-8.22a1.866 1.866 0 0 0 .14-.16c1.13-1.4 2.27-2.787 3.4-4.185v-.002a49.952 49.952 0 0 0-1.463-12.725Zm-34.371-67.613.016-.021-.016.043Zm-6.648 59.933-.259-.581c.011-.42.011-.84 0-1.27 0-.118-.021-.236-.021-.355.097.743.183 1.485.29 2.227Z" fill="#2f2e41"/>
</svg>